# xmcd CD database file
#
# Track frame offsets:
#	187
#	19427
#	46177
#	76392
#	116197
#	147415
#	188802
#	232865
#	252367
#	294340
#
# Disc length: 4414 seconds
#
# Revision: 0
# Processed by: cddbd v1.5PL3 Copyright (c) Steve Scherf et al.
# Submitted via: CDex 1.51
#
DISCID=89113c0a
DTITLE=Various Artist - JAZZ 60s
DYEAR=1997
DGENRE=Jazz
TTITLE0=Work Song
TTITLE1=I'll Close My Eyes
TTITLE2=Left Alone
TTITLE3=Stolen Moments
TTITLE4=Waltz for Debby
TTITLE5=Full House
TTITLE6=Caravan
TTITLE7=Say It (Over and Over Again)
TTITLE8=Dolphin Dance
TTITLE9=Recado Bossa Nova
EXTD=YEAR: 1997
EXTT0=
EXTT1=
EXTT2=
EXTT3=
EXTT4=
EXTT5=
EXTT6=
EXTT7=
EXTT8=
EXTT9=
PLAYORDER=
